<svg width="113" height="131" viewBox="0 0 113 131" fill="none" xmlns="http://www.w3.org/2000/svg">
<circle cx="56.5" cy="66.502" r="56.5" fill="#285442"/>
<path d="M73.3826 66.7812L70.9523 73.7284L84.5447 78.4833L81.3959 87.4844L67.8035 82.7295L65.1197 90.4016L80.5243 95.7905L77.2064 105.275L49.9614 95.744L64.86 53.1548L92.1051 62.6857L88.7872 72.1701L73.3826 66.7812Z" fill="#9BC1B1"/>
<path d="M65.4306 49.376C65.3616 53.8128 64.383 57.7447 62.4948 61.1718C60.5633 64.6408 57.8762 67.3087 54.4334 69.1754C50.99 71.0848 47.0498 72.005 42.613 71.936C36.9817 71.8484 32.2698 70.2603 28.4774 67.1716C24.6843 64.1256 22.2733 60.013 21.2444 54.8337L34.7467 55.0436C35.5308 56.7627 36.6411 58.0814 38.0776 58.9999C39.4715 59.9177 41.107 60.3912 42.9841 60.4203C45.8851 60.4655 48.2264 59.4564 50.008 57.3932C51.7463 55.372 52.6424 52.6336 52.6961 49.178C52.7505 45.6797 51.9407 42.8721 50.2667 40.7552C48.5495 38.6802 46.2403 37.6202 43.3394 37.5751C41.4622 37.5459 39.8128 37.9683 38.3911 38.8423C36.9266 39.7157 35.7759 40.9993 34.9388 42.6931L21.4364 42.4832C22.6259 37.3384 25.1639 33.2813 29.0506 30.3121C32.9365 27.3855 37.6952 25.9659 43.3265 26.0535C47.7633 26.1225 51.6732 27.1434 55.0563 29.1163C58.4387 31.1317 61.0416 33.8819 62.865 37.3667C64.645 40.8934 65.5002 44.8965 65.4306 49.376Z" fill="#9BC1B1"/>
</svg>
